<mxfile host="app.diagrams.net" modified="2024-05-14T11:06:59.536Z" agent="Mozilla/5.0 (Windows NT 10.0; Win64; x64) AppleWebKit/537.36 (KHTML, like Gecko) Chrome/124.0.0.0 Safari/537.36" etag="IVsZVq4Lrz_JTsobPjAw" version="24.4.0" type="github">
  <diagram name="Page-1" id="FtU3BbyYukypNn_lyhou">
    <mxGraphModel dx="880" dy="426" grid="1" gridSize="10" guides="1" tooltips="1" connect="1" arrows="1" fold="1" page="1" pageScale="1" pageWidth="850" pageHeight="1100" math="0" shadow="0">
      <root>
        <mxCell id="0" />
        <mxCell id="1" parent="0" />
        <mxCell id="zpV-3UGrIrH2muKYK7wj-1" value="&lt;ul style=&quot;font-size: 22px;&quot;&gt;&lt;li&gt;&lt;font style=&quot;font-size: 22px;&quot;&gt;Home&lt;/font&gt;&lt;/li&gt;&lt;li&gt;&lt;font style=&quot;font-size: 22px;&quot;&gt;About&lt;/font&gt;&lt;/li&gt;&lt;li&gt;&lt;font style=&quot;font-size: 22px;&quot;&gt;Contact Us&lt;/font&gt;&lt;/li&gt;&lt;li&gt;&lt;font style=&quot;font-size: 22px;&quot;&gt;Sevices&lt;/font&gt;&lt;/li&gt;&lt;/ul&gt;" style="rounded=0;whiteSpace=wrap;html=1;fontColor=default;" vertex="1" parent="1">
          <mxGeometry x="40" y="50" width="120" height="290" as="geometry" />
        </mxCell>
        <mxCell id="zpV-3UGrIrH2muKYK7wj-4" value="" style="edgeStyle=orthogonalEdgeStyle;rounded=0;orthogonalLoop=1;jettySize=auto;html=1;" edge="1" parent="1" source="zpV-3UGrIrH2muKYK7wj-2" target="zpV-3UGrIrH2muKYK7wj-3">
          <mxGeometry relative="1" as="geometry" />
        </mxCell>
        <mxCell id="zpV-3UGrIrH2muKYK7wj-6" value="" style="edgeStyle=orthogonalEdgeStyle;rounded=0;orthogonalLoop=1;jettySize=auto;html=1;" edge="1" parent="1" source="zpV-3UGrIrH2muKYK7wj-2" target="zpV-3UGrIrH2muKYK7wj-5">
          <mxGeometry relative="1" as="geometry" />
        </mxCell>
        <mxCell id="zpV-3UGrIrH2muKYK7wj-8" value="" style="edgeStyle=orthogonalEdgeStyle;rounded=0;orthogonalLoop=1;jettySize=auto;html=1;" edge="1" parent="1" source="zpV-3UGrIrH2muKYK7wj-2" target="zpV-3UGrIrH2muKYK7wj-7">
          <mxGeometry relative="1" as="geometry" />
        </mxCell>
        <mxCell id="zpV-3UGrIrH2muKYK7wj-2" value="Home" style="rounded=0;whiteSpace=wrap;html=1;fontSize=28;" vertex="1" parent="1">
          <mxGeometry x="430" y="70" width="120" height="60" as="geometry" />
        </mxCell>
        <mxCell id="zpV-3UGrIrH2muKYK7wj-3" value="&lt;font style=&quot;font-size: 21px;&quot;&gt;Contact Us&lt;/font&gt;" style="rounded=0;whiteSpace=wrap;html=1;fontSize=28;" vertex="1" parent="1">
          <mxGeometry x="430" y="200" width="120" height="60" as="geometry" />
        </mxCell>
        <mxCell id="zpV-3UGrIrH2muKYK7wj-5" value="&lt;font style=&quot;font-size: 21px;&quot;&gt;About&lt;/font&gt;" style="rounded=0;whiteSpace=wrap;html=1;fontSize=28;" vertex="1" parent="1">
          <mxGeometry x="280" y="200" width="120" height="60" as="geometry" />
        </mxCell>
        <mxCell id="zpV-3UGrIrH2muKYK7wj-14" value="" style="edgeStyle=orthogonalEdgeStyle;rounded=0;orthogonalLoop=1;jettySize=auto;html=1;" edge="1" parent="1" source="zpV-3UGrIrH2muKYK7wj-7" target="zpV-3UGrIrH2muKYK7wj-13">
          <mxGeometry relative="1" as="geometry" />
        </mxCell>
        <mxCell id="zpV-3UGrIrH2muKYK7wj-15" value="" style="edgeStyle=orthogonalEdgeStyle;rounded=0;orthogonalLoop=1;jettySize=auto;html=1;" edge="1" parent="1" source="zpV-3UGrIrH2muKYK7wj-7" target="zpV-3UGrIrH2muKYK7wj-9">
          <mxGeometry relative="1" as="geometry" />
        </mxCell>
        <mxCell id="zpV-3UGrIrH2muKYK7wj-7" value="&lt;font style=&quot;font-size: 21px;&quot;&gt;Services&lt;/font&gt;" style="rounded=0;whiteSpace=wrap;html=1;fontSize=28;" vertex="1" parent="1">
          <mxGeometry x="620" y="280" width="120" height="60" as="geometry" />
        </mxCell>
        <mxCell id="zpV-3UGrIrH2muKYK7wj-9" value="&lt;font style=&quot;font-size: 21px;&quot;&gt;Web Developmemt&lt;/font&gt;" style="rounded=0;whiteSpace=wrap;html=1;fontSize=28;" vertex="1" parent="1">
          <mxGeometry x="620" y="420" width="120" height="60" as="geometry" />
        </mxCell>
        <mxCell id="zpV-3UGrIrH2muKYK7wj-13" value="&lt;font style=&quot;font-size: 21px;&quot;&gt;Web design&lt;/font&gt;" style="rounded=0;whiteSpace=wrap;html=1;fontSize=28;" vertex="1" parent="1">
          <mxGeometry x="450" y="420" width="120" height="60" as="geometry" />
        </mxCell>
      </root>
    </mxGraphModel>
  </diagram>
</mxfile>
